<svg width="28" height="28" viewBox="0 0 28 28" fill="none" xmlns="http://www.w3.org/2000/svg">
<path d="M15.3365 3.21852C14.8062 2.68823 13.9464 2.68823 13.4161 3.21852L3.91087 12.7238C3.38058 13.2541 3.38058 14.1138 3.91087 14.6441C4.44116 15.1744 5.30093 15.1744 5.83122 14.6441L6.22894 14.2464V23.1892C6.22894 23.9392 6.83689 24.5471 7.58684 24.5471H10.3026C11.0526 24.5471 11.6605 23.9392 11.6605 23.1892V20.4734C11.6605 19.7235 12.2685 19.1155 13.0184 19.1155H15.7342C16.4842 19.1155 17.0921 19.7235 17.0921 20.4734V23.1892C17.0921 23.9392 17.7001 24.5471 18.45 24.5471H21.1658C21.9157 24.5471 22.5237 23.9392 22.5237 23.1892V14.2464L22.9214 14.6441C23.4517 15.1744 24.3115 15.1744 24.8418 14.6441C25.372 14.1138 25.372 13.2541 24.8418 12.7238L15.3365 3.21852Z" fill="white"/>
</svg>
