<svg width="28" height="28" viewBox="0 0 28 28" fill="none" xmlns="http://www.w3.org/2000/svg">
<path fill-rule="evenodd" clip-rule="evenodd" d="M25.1184 13.684C25.1184 19.6835 20.2548 24.5471 14.2553 24.5471C8.25571 24.5471 3.39211 19.6835 3.39211 13.684C3.39211 7.6844 8.25571 2.8208 14.2553 2.8208C20.2548 2.8208 25.1184 7.6844 25.1184 13.684ZM16.9711 9.61027C16.9711 11.1102 15.7552 12.3261 14.2553 12.3261C12.7554 12.3261 11.5395 11.1102 11.5395 9.61027C11.5395 8.11039 12.7554 6.89449 14.2553 6.89449C15.7552 6.89449 16.9711 8.11039 16.9711 9.61027ZM14.2552 15.0419C11.5156 15.0419 9.15494 16.6645 8.08191 19.0011C9.576 20.7342 11.7875 21.8313 14.2552 21.8313C16.7229 21.8313 18.9344 20.7342 20.4285 19.0012C19.3555 16.6645 16.9948 15.0419 14.2552 15.0419Z" fill="#64748B"/>
</svg>
