<svg width="66" height="66" viewBox="0 0 66 66" fill="none" xmlns="http://www.w3.org/2000/svg">
<g filter="url(#filter0_d_41_1261)">
<rect x="12" y="8" width="42" height="42" rx="21" fill="#46CBBB" shape-rendering="crispEdges"/>
<path fill-rule="evenodd" clip-rule="evenodd" d="M42.0481 27.3976L40.1887 32.9761C38.8776 36.9092 38.2221 38.8758 37.2608 39.4347C36.3463 39.9663 35.2168 39.9663 34.3023 39.4347C33.3411 38.8758 32.6855 36.9092 31.3745 32.9761C31.164 32.3445 31.0587 32.0288 30.882 31.7648C30.7108 31.509 30.4911 31.2893 30.2353 31.1181C29.9713 30.9414 29.6556 30.8361 29.024 30.6256C25.0908 29.3146 23.1243 28.659 22.5654 27.6977C22.0338 26.7832 22.0338 25.6538 22.5654 24.7393C23.1243 23.778 25.0908 23.1225 29.024 21.8114L34.6025 19.9519C39.4757 18.3275 41.9123 17.5153 43.1986 18.8015C44.4848 20.0877 43.6726 22.5244 42.0481 27.3976ZM34.1328 27.8108C33.8173 27.4917 33.8201 26.9773 34.1392 26.6617L38.7006 22.1506C39.0197 21.8351 39.5341 21.8379 39.8496 22.157C40.1652 22.476 40.1623 22.9905 39.8433 23.306L35.2819 27.8171C34.9628 28.1327 34.4484 28.1298 34.1328 27.8108Z" fill="white"/>
</g>
<defs>
<filter id="filter0_d_41_1261" x="0" y="0" width="66" height="66" filterUnits="userSpaceOnUse" color-interpolation-filters="sRGB">
<feFlood flood-opacity="0" result="BackgroundImageFix"/>
<feColorMatrix in="SourceAlpha" type="matrix" values="0 0 0 0 0 0 0 0 0 0 0 0 0 0 0 0 0 0 127 0" result="hardAlpha"/>
<feOffset dy="4"/>
<feGaussianBlur stdDeviation="6"/>
<feComposite in2="hardAlpha" operator="out"/>
<feColorMatrix type="matrix" values="0 0 0 0 0.0509804 0 0 0 0 0.0392157 0 0 0 0 0.172549 0 0 0 0.06 0"/>
<feBlend mode="normal" in2="BackgroundImageFix" result="effect1_dropShadow_41_1261"/>
<feBlend mode="normal" in="SourceGraphic" in2="effect1_dropShadow_41_1261" result="shape"/>
</filter>
</defs>
</svg>
